<svg width="168" height="26" fill="none" xmlns="http://www.w3.org/2000/svg"><defs/><g clip-path="url(#clip0)"><path fill-rule="evenodd" clip-rule="evenodd" d="M51.25 12.888c0-6.898-5.673-12.5-12.626-12.5-.64 0-1.298.037-1.938.146-5.406.785-9.034 4.781-11.061 7.847-2.027-3.066-5.655-7.062-11.06-7.847a13.86 13.86 0 00-1.94-.146C5.656.388 0 5.99 0 12.888s5.673 12.5 12.626 12.5c.64 0 1.298-.036 1.956-.146 5.406-.803 9.034-4.8 11.06-7.865 2.028 3.066 5.656 7.062 11.062 7.865.64.091 1.298.146 1.956.146 6.917 0 12.59-5.602 12.59-12.5zm-37.308 7.975c-.445.073-.89.09-1.334.09-4.588 0-8.305-3.63-8.305-8.065 0-4.452 3.735-8.066 8.323-8.066.444 0 .889.037 1.333.092 5.104.748 8.216 5.912 9.283 7.974-1.085 2.08-4.215 7.226-9.3 7.975zM37.29 4.913c-5.104.749-8.234 5.913-9.283 7.975 1.049 2.062 4.179 7.226 9.283 7.975.444.054.889.09 1.333.09 4.57 0 8.305-3.612 8.305-8.065 0-4.434-3.717-8.066-8.305-8.066-.444 0-.889.037-1.334.092zM9.064 11.55H16.7v2.403H9.064V11.55zm33.084 2.42h-2.575v2.527h-2.468V13.97H34.53v-2.42h2.575V9.022h2.468v2.526h2.575v2.42z" fill="#00979D"/></g><g clip-path="url(#clip1)"><path fill="#F26727" d="M59.25.388h54v25h-54z"/><path d="M77.073 16.082c-.969.665-1.881 1.026-3.04 1.026-1.843 0-2.584-1.406-2.584-3.97 0-2.623.893-3.782 2.508-3.782.988 0 1.71.266 2.736 1.064L77.7 7.893c-1.14-.703-2.28-1.026-3.572-1.026-3.629 0-5.928 2.3-5.928 6.327 0 4.085 1.843 6.384 5.51 6.384 1.444 0 2.622-.323 4.066-1.102l-.703-2.394zm14.188-9.044H80.906v2.49h3.648v9.86h3.059v-9.86h3.648v-2.49zm12.097 9.044c-.969.665-1.881 1.026-3.04 1.026-1.843 0-2.584-1.406-2.584-3.97 0-2.623.893-3.782 2.508-3.782.988 0 1.71.266 2.736 1.064l1.007-2.527c-1.14-.703-2.28-1.026-3.572-1.026-3.629 0-5.928 2.3-5.928 6.327 0 4.085 1.843 6.384 5.51 6.384 1.444 0 2.622-.323 4.066-1.102l-.703-2.394z" fill="#fff"/><path d="M122.694 19.388h8.493v-2.033h-2.983V6.867l-4.902.247V9.11l2.508-.114v8.36h-3.116v2.033zm17.494-12.52c-3.705 0-4.902 2.716-4.902 6.592 0 4.218 1.539 6.118 4.712 6.118 3.99 0 4.883-3.192 4.883-6.63 0-3.82-1.349-6.08-4.693-6.08zm-.076 10.753c-2.128 0-2.394-1.862-2.394-4.54 0-2.376.456-4.257 2.299-4.257 2.204 0 2.413 1.976 2.413 4.313 0 2.622-.361 4.484-2.318 4.484zm8.867 1.767h8.493v-2.033h-2.983V6.867l-4.902.247V9.11l2.508-.114v8.36h-3.116v2.033z" fill="#00979D"/><path stroke="#F26727" d="M113.75.888h53v24h-53z"/></g><defs><clipPath id="clip0"><path fill="#fff" transform="translate(0 .388)" d="M0 0h51.25v25H0z"/></clipPath><clipPath id="clip1"><path fill="#fff" transform="translate(59.25 .388)" d="M0 0h108v25H0z"/></clipPath></defs></svg>